<svg style="display:none"><defs><path d="M1189.875 421c-.445 0-16.875-19.185-16.875-28.37 0-9.184 7.555-16.63 16.875-16.63s16.875 7.446 16.875 16.63c0 9.185-16.43 28.37-16.875 28.37zm0-19.432a8.693 8.693 0 1 0 0-17.386 8.693 8.693 0 0 0 0 17.386z" id="green-point-b"/><filter x="-26.7%" y="-11.1%" width="153.3%" height="144.4%" filterUnits="objectBoundingBox" id="green-point-a"><feOffset dy="6" in="SourceAlpha" result="shadowOffsetOuter1"/><feGaussianBlur stdDeviation="2" in="shadowOffsetOuter1" result="shadowBlurOuter1"/><feColorMatrix values="0 0 0 0 0 0 0 0 0 0 0 0 0 0 0 0 0 0 0.17541327 0" in="shadowBlurOuter1"/></filter><path d="M906.875 823C906.43 823 890 803.815 890 794.63c0-9.184 7.555-16.63 16.875-16.63s16.875 7.446 16.875 16.63c0 9.185-16.43 28.37-16.875 28.37zm0-19.432a8.693 8.693 0 1 0 0-17.386 8.693 8.693 0 0 0 0 17.386z" id="red-point-b"/><filter x="-26.7%" y="-11.1%" width="153.3%" height="144.4%" filterUnits="objectBoundingBox" id="red-point-a"><feOffset dy="6" in="SourceAlpha" result="shadowOffsetOuter1"/><feGaussianBlur stdDeviation="2" in="shadowOffsetOuter1" result="shadowBlurOuter1"/><feColorMatrix values="0 0 0 0 0 0 0 0 0 0 0 0 0 0 0 0 0 0 0.17541327 0" in="shadowBlurOuter1"/></filter></defs><symbol viewBox="0 0 15 16" id="calendar"><path d="M12.8 1.6H12V0h-1.6v1.6H4V0H2.4v1.6h-.8C.712 1.6.008 2.32.008 3.2L0 14.4c0 .88.712 1.6 1.6 1.6h11.2c.88 0 1.6-.72 1.6-1.6V3.2c0-.88-.72-1.6-1.6-1.6zm0 12.8H1.6V5.6h11.2v8.8zM3.2 7.2h4v4h-4v-4z" fill-rule="evenodd" fill-opacity=".7"/></symbol><symbol viewBox="0 0 12 10" id="checkbox"><path d="M1.41 4L4 6.77 10.59 0 12 1.469l-8 8.25-4-4.25z" fill-rule="evenodd"/></symbol><symbol viewBox="0 0 314.5 314.5" id="down-arrow"><path d="M314.5 90.5c0 6-2 13-7 18l-133 133c-5 5-10 7-17 7s-12-2-17-7l-133-133c-10-10-10-25 0-35s24-10 34 0l116 116 116-116c10-10 24-10 34 0 5 5 7 11 7 17z"/></symbol><symbol viewBox="0 0 42 55" id="green-point"><g transform="translate(-1169 -376)" fill-rule="evenodd"><use filter="url(#green-point-a)" xlink:href="#green-point-b"/><use xlink:href="#green-point-b"/></g></symbol><symbol viewBox="0 0 42 55" id="red-point"><g transform="translate(-886 -778)" fill-rule="evenodd"><use filter="url(#red-point-a)" xlink:href="#red-point-b"/><use xlink:href="#red-point-b"/></g></symbol></svg>